<svg xmlns="http://www.w3.org/2000/svg" xmlns:xlink="http://www.w3.org/1999/xlink" width="1000" zoomAndPan="magnify" viewBox="0 0 750 97.5" height="130" preserveAspectRatio="xMidYMid meet" version="1.0"><defs><g/></defs><g fill="#ffffff" fill-opacity="1"><g transform="translate(0.509545, 74.990434)"><g><path d="M 25.449219 2.785156 C 20.652344 2.785156 16.5 1.984375 12.992188 0.378906 C 9.402344 -1.257812 6.628906 -3.597656 4.664062 -6.644531 C 2.699219 -9.691406 1.714844 -13.246094 1.714844 -17.304688 L 1.714844 -19 L 17.214844 -19 L 17.214844 -17.304688 C 17.214844 -15.257812 17.898438 -13.679688 19.265625 -12.570312 C 20.738281 -11.375 22.773438 -10.777344 25.375 -10.777344 C 27.613281 -10.777344 29.34375 -11.183594 30.554688 -12 C 31.554688 -12.671875 32.054688 -13.613281 32.054688 -14.820312 C 32.054688 -16.125 31.40625 -17.203125 30.105469 -18.058594 C 28.472656 -19.132812 25.84375 -20.058594 22.222656 -20.84375 C 15.566406 -22.25 10.601562 -24.425781 7.324219 -27.371094 C 3.894531 -30.449219 2.183594 -34.4375 2.183594 -39.339844 C 2.183594 -44.851562 4.207031 -49.214844 8.257812 -52.425781 C 12.1875 -55.542969 17.476562 -57.101562 24.132812 -57.101562 C 28.675781 -57.101562 32.640625 -56.308594 36.023438 -54.730469 C 39.472656 -53.117188 42.152344 -50.84375 44.0625 -47.910156 C 45.976562 -44.964844 46.933594 -41.488281 46.933594 -37.476562 L 46.933594 -35.78125 L 31.667969 -35.78125 L 31.667969 -37.476562 C 31.667969 -39.394531 31.058594 -40.882812 29.84375 -41.941406 C 28.5625 -43.058594 26.707031 -43.617188 24.285156 -43.617188 C 22.046875 -43.617188 20.316406 -43.210938 19.105469 -42.394531 C 18.105469 -41.722656 17.605469 -40.78125 17.605469 -39.574219 C 17.605469 -38.511719 18.1875 -37.582031 19.351562 -36.78125 C 20.832031 -35.761719 23.539062 -34.789062 27.472656 -33.851562 C 34.527344 -32.183594 39.664062 -29.90625 42.878906 -27.023438 C 46.253906 -24 47.945312 -20.085938 47.945312 -15.285156 C 47.945312 -9.613281 45.878906 -5.160156 41.746094 -1.921875 C 37.738281 1.214844 32.308594 2.785156 25.449219 2.785156 Z M 25.449219 -0.609375 C 31.527344 -0.609375 36.261719 -1.9375 39.652344 -4.59375 C 42.917969 -7.152344 44.550781 -10.714844 44.550781 -15.285156 C 44.550781 -19.074219 43.238281 -22.144531 40.613281 -24.496094 C 37.828125 -26.996094 33.183594 -29.011719 26.6875 -30.550781 C 22.34375 -31.582031 19.257812 -32.726562 17.429688 -33.984375 C 15.28125 -35.460938 14.210938 -37.324219 14.210938 -39.574219 C 14.210938 -41.988281 15.210938 -43.867188 17.210938 -45.210938 C 18.996094 -46.414062 21.355469 -47.011719 24.285156 -47.011719 C 27.554688 -47.011719 30.152344 -46.175781 32.074219 -44.5 C 34.066406 -42.765625 35.0625 -40.425781 35.0625 -37.476562 L 33.367188 -37.476562 L 33.367188 -39.175781 L 45.238281 -39.175781 L 45.238281 -37.476562 L 43.539062 -37.476562 C 43.539062 -40.816406 42.765625 -43.675781 41.214844 -46.058594 C 39.660156 -48.449219 37.449219 -50.316406 34.585938 -51.652344 C 31.660156 -53.019531 28.175781 -53.703125 24.132812 -53.703125 C 18.265625 -53.703125 13.679688 -52.390625 10.367188 -49.765625 C 7.171875 -47.234375 5.578125 -43.757812 5.578125 -39.339844 C 5.578125 -35.449219 6.914062 -32.300781 9.59375 -29.894531 C 12.417969 -27.355469 16.867188 -25.445312 22.9375 -24.160156 C 26.972656 -23.289062 29.984375 -22.199219 31.96875 -20.894531 C 34.289062 -19.371094 35.449219 -17.34375 35.449219 -14.820312 C 35.449219 -12.40625 34.449219 -10.527344 32.449219 -9.183594 C 30.664062 -7.980469 28.304688 -7.382812 25.375 -7.382812 C 21.972656 -7.382812 19.222656 -8.230469 17.125 -9.933594 C 14.921875 -11.722656 13.820312 -14.179688 13.820312 -17.304688 L 15.519531 -17.304688 L 15.519531 -15.605469 L 3.414062 -15.605469 L 3.414062 -17.304688 L 5.113281 -17.304688 C 5.113281 -13.914062 5.914062 -10.972656 7.519531 -8.484375 C 9.121094 -5.996094 11.417969 -4.070312 14.402344 -2.707031 C 17.460938 -1.308594 21.144531 -0.609375 25.449219 -0.609375 Z M 25.449219 -0.609375 "/></g></g></g><g fill="#ffffff" fill-opacity="1"><g transform="translate(46.364918, 74.990434)"><g><path d="M 4.820312 0 L 4.820312 -56.015625 L 17.886719 -56.015625 L 37.714844 -27.109375 L 36.3125 -26.148438 L 34.914062 -27.105469 L 54.660156 -56.015625 L 67.652344 -56.015625 L 67.652344 1.699219 L 51.996094 1.699219 L 51.996094 -32.667969 L 53.695312 -32.667969 L 55.09375 -31.707031 L 41.398438 -11.726562 L 31.074219 -11.726562 L 17.375 -31.789062 L 18.777344 -32.746094 L 20.476562 -32.746094 L 20.476562 1.699219 L 4.820312 1.699219 Z M 8.214844 0 L 6.519531 0 L 6.519531 -1.699219 L 18.777344 -1.699219 L 18.777344 0 L 17.082031 0 L 17.082031 -38.242188 L 33.371094 -14.382812 L 31.96875 -13.425781 L 31.96875 -15.121094 L 40.503906 -15.121094 L 40.503906 -13.425781 L 39.105469 -14.382812 L 55.394531 -38.144531 L 55.394531 0 L 53.695312 0 L 53.695312 -1.699219 L 65.957031 -1.699219 L 65.957031 0 L 64.257812 0 L 64.257812 -54.316406 L 65.957031 -54.316406 L 65.957031 -52.617188 L 55.558594 -52.617188 L 55.558594 -54.316406 L 56.960938 -53.359375 L 36.316406 -23.144531 L 15.59375 -53.355469 L 16.992188 -54.316406 L 16.992188 -52.617188 L 6.519531 -52.617188 L 6.519531 -54.316406 L 8.214844 -54.316406 Z M 8.214844 0 "/></g></g></g><g fill="#ffffff" fill-opacity="1"><g transform="translate(114.954261, 74.990434)"><g><path d="M -0.878906 -0.625 L 21.117188 -56.015625 L 35.527344 -56.015625 L 58.445312 1.699219 L 41.59375 1.699219 L 37.523438 -8.773438 L 39.109375 -9.390625 L 39.109375 -7.691406 L 17.535156 -7.691406 L 17.535156 -9.390625 L 19.117188 -8.773438 L 15.050781 1.699219 L -1.800781 1.699219 Z M 2.277344 0.625 L 0.699219 0 L 0.699219 -1.699219 L 13.890625 -1.699219 L 13.890625 0 L 12.308594 -0.613281 L 16.375 -11.085938 L 40.269531 -11.085938 L 44.335938 -0.613281 L 42.753906 0 L 42.753906 -1.699219 L 55.945312 -1.699219 L 55.945312 0 L 54.367188 0.625 L 32.796875 -53.691406 L 34.375 -54.316406 L 34.375 -52.617188 L 22.269531 -52.617188 L 22.269531 -54.316406 L 23.847656 -53.691406 Z M 20.71875 -20.785156 L 36.003906 -20.785156 L 36.003906 -19.089844 L 34.421875 -18.476562 L 26.738281 -38.339844 L 28.320312 -38.953125 L 29.90625 -38.34375 L 22.304688 -18.480469 L 20.71875 -19.089844 Z M 18.25 -17.390625 L 28.3125 -43.679688 L 38.480469 -17.390625 Z M 18.25 -17.390625 "/></g></g></g><g fill="#ffffff" fill-opacity="1"><g transform="translate(167.715177, 74.990434)"><g><path d="M 4.820312 0 L 4.820312 -56.015625 L 29.71875 -56.015625 C 34.121094 -56.015625 37.964844 -55.207031 41.253906 -53.589844 C 44.609375 -51.941406 47.199219 -49.574219 49.027344 -46.492188 C 50.839844 -43.429688 51.746094 -39.804688 51.746094 -35.617188 C 51.746094 -31.304688 50.753906 -27.578125 48.769531 -24.429688 C 46.773438 -21.265625 43.992188 -18.890625 40.417969 -17.304688 L 39.726562 -18.855469 L 41.1875 -19.726562 L 53.96875 1.699219 L 35.71875 1.699219 L 25.53125 -16.070312 L 27.003906 -16.914062 L 27.003906 -15.21875 L 18.855469 -15.21875 L 18.855469 -16.914062 L 20.554688 -16.914062 L 20.554688 1.699219 L 4.820312 1.699219 Z M 8.214844 0 L 6.519531 0 L 6.519531 -1.699219 L 18.855469 -1.699219 L 18.855469 0 L 17.15625 0 L 17.15625 -18.613281 L 27.988281 -18.613281 L 38.175781 -0.84375 L 36.703125 0 L 36.703125 -1.699219 L 50.980469 -1.699219 L 50.980469 0 L 49.523438 0.871094 L 37.289062 -19.628906 L 39.039062 -20.40625 C 41.984375 -21.714844 44.269531 -23.660156 45.898438 -26.238281 C 47.53125 -28.835938 48.351562 -31.960938 48.351562 -35.617188 C 48.351562 -39.183594 47.601562 -42.234375 46.105469 -44.761719 C 44.621094 -47.261719 42.503906 -49.191406 39.753906 -50.542969 C 36.941406 -51.925781 33.59375 -52.617188 29.71875 -52.617188 L 6.519531 -52.617188 L 6.519531 -54.316406 L 8.214844 -54.316406 Z M 18.699219 -29.011719 L 28.089844 -29.011719 C 30.71875 -29.011719 32.683594 -29.582031 33.996094 -30.726562 C 35.238281 -31.808594 35.859375 -33.414062 35.859375 -35.539062 C 35.859375 -37.664062 35.238281 -39.265625 33.996094 -40.351562 C 32.683594 -41.492188 30.71875 -42.066406 28.089844 -42.066406 L 18.699219 -42.066406 L 18.699219 -43.761719 L 20.398438 -43.761719 L 20.398438 -27.3125 L 18.699219 -27.3125 Z M 17.003906 -25.617188 L 17.003906 -45.460938 L 28.089844 -45.460938 C 31.566406 -45.460938 34.277344 -44.609375 36.226562 -42.910156 C 38.246094 -41.148438 39.253906 -38.691406 39.253906 -35.539062 C 39.253906 -32.386719 38.246094 -29.929688 36.226562 -28.167969 C 34.277344 -26.464844 31.566406 -25.617188 28.089844 -25.617188 Z M 17.003906 -25.617188 "/></g></g></g><g fill="#ffffff" fill-opacity="1"><g transform="translate(218.458728, 74.990434)"><g><path d="M 17.855469 0 L 17.855469 -42.753906 L 19.554688 -42.753906 L 19.554688 -41.058594 L 0.628906 -41.058594 L 0.628906 -56.015625 L 50.816406 -56.015625 L 50.816406 -41.058594 L 31.890625 -41.058594 L 31.890625 -42.753906 L 33.589844 -42.753906 L 33.589844 1.699219 L 17.855469 1.699219 Z M 21.25 0 L 19.554688 0 L 19.554688 -1.699219 L 31.890625 -1.699219 L 31.890625 0 L 30.195312 0 L 30.195312 -44.453125 L 49.117188 -44.453125 L 49.117188 -42.753906 L 47.417969 -42.753906 L 47.417969 -54.316406 L 49.117188 -54.316406 L 49.117188 -52.617188 L 2.328125 -52.617188 L 2.328125 -54.316406 L 4.023438 -54.316406 L 4.023438 -42.753906 L 2.328125 -42.753906 L 2.328125 -44.453125 L 21.25 -44.453125 Z M 21.25 0 "/></g></g></g><g fill="#ffffff" fill-opacity="1"><g transform="translate(266.02109, 74.990434)"><g/></g></g><g fill="#ffffff" fill-opacity="1"><g transform="translate(280.374773, 74.990434)"><g><path d="M 17.855469 0 L 17.855469 -42.753906 L 19.554688 -42.753906 L 19.554688 -41.058594 L 0.628906 -41.058594 L 0.628906 -56.015625 L 50.816406 -56.015625 L 50.816406 -41.058594 L 31.890625 -41.058594 L 31.890625 -42.753906 L 33.589844 -42.753906 L 33.589844 1.699219 L 17.855469 1.699219 Z M 21.25 0 L 19.554688 0 L 19.554688 -1.699219 L 31.890625 -1.699219 L 31.890625 0 L 30.195312 0 L 30.195312 -44.453125 L 49.117188 -44.453125 L 49.117188 -42.753906 L 47.417969 -42.753906 L 47.417969 -54.316406 L 49.117188 -54.316406 L 49.117188 -52.617188 L 2.328125 -52.617188 L 2.328125 -54.316406 L 4.023438 -54.316406 L 4.023438 -42.753906 L 2.328125 -42.753906 L 2.328125 -44.453125 L 21.25 -44.453125 Z M 21.25 0 "/></g></g></g><g fill="#ffffff" fill-opacity="1"><g transform="translate(327.937136, 74.990434)"><g><path d="M 4.820312 0 L 4.820312 -56.015625 L 29.71875 -56.015625 C 34.121094 -56.015625 37.964844 -55.207031 41.253906 -53.589844 C 44.609375 -51.941406 47.199219 -49.574219 49.027344 -46.492188 C 50.839844 -43.429688 51.746094 -39.804688 51.746094 -35.617188 C 51.746094 -31.304688 50.753906 -27.578125 48.769531 -24.429688 C 46.773438 -21.265625 43.992188 -18.890625 40.417969 -17.304688 L 39.726562 -18.855469 L 41.1875 -19.726562 L 53.96875 1.699219 L 35.71875 1.699219 L 25.53125 -16.070312 L 27.003906 -16.914062 L 27.003906 -15.21875 L 18.855469 -15.21875 L 18.855469 -16.914062 L 20.554688 -16.914062 L 20.554688 1.699219 L 4.820312 1.699219 Z M 8.214844 0 L 6.519531 0 L 6.519531 -1.699219 L 18.855469 -1.699219 L 18.855469 0 L 17.15625 0 L 17.15625 -18.613281 L 27.988281 -18.613281 L 38.175781 -0.84375 L 36.703125 0 L 36.703125 -1.699219 L 50.980469 -1.699219 L 50.980469 0 L 49.523438 0.871094 L 37.289062 -19.628906 L 39.039062 -20.40625 C 41.984375 -21.714844 44.269531 -23.660156 45.898438 -26.238281 C 47.53125 -28.835938 48.351562 -31.960938 48.351562 -35.617188 C 48.351562 -39.183594 47.601562 -42.234375 46.105469 -44.761719 C 44.621094 -47.261719 42.503906 -49.191406 39.753906 -50.542969 C 36.941406 -51.925781 33.59375 -52.617188 29.71875 -52.617188 L 6.519531 -52.617188 L 6.519531 -54.316406 L 8.214844 -54.316406 Z M 18.699219 -29.011719 L 28.089844 -29.011719 C 30.71875 -29.011719 32.683594 -29.582031 33.996094 -30.726562 C 35.238281 -31.808594 35.859375 -33.414062 35.859375 -35.539062 C 35.859375 -37.664062 35.238281 -39.265625 33.996094 -40.351562 C 32.683594 -41.492188 30.71875 -42.066406 28.089844 -42.066406 L 18.699219 -42.066406 L 18.699219 -43.761719 L 20.398438 -43.761719 L 20.398438 -27.3125 L 18.699219 -27.3125 Z M 17.003906 -25.617188 L 17.003906 -45.460938 L 28.089844 -45.460938 C 31.566406 -45.460938 34.277344 -44.609375 36.226562 -42.910156 C 38.246094 -41.148438 39.253906 -38.691406 39.253906 -35.539062 C 39.253906 -32.386719 38.246094 -29.929688 36.226562 -28.167969 C 34.277344 -26.464844 31.566406 -25.617188 28.089844 -25.617188 Z M 17.003906 -25.617188 "/></g></g></g><g fill="#ffffff" fill-opacity="1"><g transform="translate(378.68071, 74.990434)"><g><path d="M -0.878906 -0.625 L 21.117188 -56.015625 L 35.527344 -56.015625 L 58.445312 1.699219 L 41.59375 1.699219 L 37.523438 -8.773438 L 39.109375 -9.390625 L 39.109375 -7.691406 L 17.535156 -7.691406 L 17.535156 -9.390625 L 19.117188 -8.773438 L 15.050781 1.699219 L -1.800781 1.699219 Z M 2.277344 0.625 L 0.699219 0 L 0.699219 -1.699219 L 13.890625 -1.699219 L 13.890625 0 L 12.308594 -0.613281 L 16.375 -11.085938 L 40.269531 -11.085938 L 44.335938 -0.613281 L 42.753906 0 L 42.753906 -1.699219 L 55.945312 -1.699219 L 55.945312 0 L 54.367188 0.625 L 32.796875 -53.691406 L 34.375 -54.316406 L 34.375 -52.617188 L 22.269531 -52.617188 L 22.269531 -54.316406 L 23.847656 -53.691406 Z M 20.71875 -20.785156 L 36.003906 -20.785156 L 36.003906 -19.089844 L 34.421875 -18.476562 L 26.738281 -38.339844 L 28.320312 -38.953125 L 29.90625 -38.34375 L 22.304688 -18.480469 L 20.71875 -19.089844 Z M 18.25 -17.390625 L 28.3125 -43.679688 L 38.480469 -17.390625 Z M 18.25 -17.390625 "/></g></g></g><g fill="#ffffff" fill-opacity="1"><g transform="translate(431.441648, 74.990434)"><g><path d="M 25.449219 2.785156 C 20.652344 2.785156 16.5 1.984375 12.992188 0.378906 C 9.402344 -1.257812 6.628906 -3.597656 4.664062 -6.644531 C 2.699219 -9.691406 1.714844 -13.246094 1.714844 -17.304688 L 1.714844 -19 L 17.214844 -19 L 17.214844 -17.304688 C 17.214844 -15.257812 17.898438 -13.679688 19.265625 -12.570312 C 20.738281 -11.375 22.773438 -10.777344 25.375 -10.777344 C 27.613281 -10.777344 29.34375 -11.183594 30.554688 -12 C 31.554688 -12.671875 32.054688 -13.613281 32.054688 -14.820312 C 32.054688 -16.125 31.40625 -17.203125 30.105469 -18.058594 C 28.472656 -19.132812 25.84375 -20.058594 22.222656 -20.84375 C 15.566406 -22.25 10.601562 -24.425781 7.324219 -27.371094 C 3.894531 -30.449219 2.183594 -34.4375 2.183594 -39.339844 C 2.183594 -44.851562 4.207031 -49.214844 8.257812 -52.425781 C 12.1875 -55.542969 17.476562 -57.101562 24.132812 -57.101562 C 28.675781 -57.101562 32.640625 -56.308594 36.023438 -54.730469 C 39.472656 -53.117188 42.152344 -50.84375 44.0625 -47.910156 C 45.976562 -44.964844 46.933594 -41.488281 46.933594 -37.476562 L 46.933594 -35.78125 L 31.667969 -35.78125 L 31.667969 -37.476562 C 31.667969 -39.394531 31.058594 -40.882812 29.84375 -41.941406 C 28.5625 -43.058594 26.707031 -43.617188 24.285156 -43.617188 C 22.046875 -43.617188 20.316406 -43.210938 19.105469 -42.394531 C 18.105469 -41.722656 17.605469 -40.78125 17.605469 -39.574219 C 17.605469 -38.511719 18.1875 -37.582031 19.351562 -36.78125 C 20.832031 -35.761719 23.539062 -34.789062 27.472656 -33.851562 C 34.527344 -32.183594 39.664062 -29.90625 42.878906 -27.023438 C 46.253906 -24 47.945312 -20.085938 47.945312 -15.285156 C 47.945312 -9.613281 45.878906 -5.160156 41.746094 -1.921875 C 37.738281 1.214844 32.308594 2.785156 25.449219 2.785156 Z M 25.449219 -0.609375 C 31.527344 -0.609375 36.261719 -1.9375 39.652344 -4.59375 C 42.917969 -7.152344 44.550781 -10.714844 44.550781 -15.285156 C 44.550781 -19.074219 43.238281 -22.144531 40.613281 -24.496094 C 37.828125 -26.996094 33.183594 -29.011719 26.6875 -30.550781 C 22.34375 -31.582031 19.257812 -32.726562 17.429688 -33.984375 C 15.28125 -35.460938 14.210938 -37.324219 14.210938 -39.574219 C 14.210938 -41.988281 15.210938 -43.867188 17.210938 -45.210938 C 18.996094 -46.414062 21.355469 -47.011719 24.285156 -47.011719 C 27.554688 -47.011719 30.152344 -46.175781 32.074219 -44.5 C 34.066406 -42.765625 35.0625 -40.425781 35.0625 -37.476562 L 33.367188 -37.476562 L 33.367188 -39.175781 L 45.238281 -39.175781 L 45.238281 -37.476562 L 43.539062 -37.476562 C 43.539062 -40.816406 42.765625 -43.675781 41.214844 -46.058594 C 39.660156 -48.449219 37.449219 -50.316406 34.585938 -51.652344 C 31.660156 -53.019531 28.175781 -53.703125 24.132812 -53.703125 C 18.265625 -53.703125 13.679688 -52.390625 10.367188 -49.765625 C 7.171875 -47.234375 5.578125 -43.757812 5.578125 -39.339844 C 5.578125 -35.449219 6.914062 -32.300781 9.59375 -29.894531 C 12.417969 -27.355469 16.867188 -25.445312 22.9375 -24.160156 C 26.972656 -23.289062 29.984375 -22.199219 31.96875 -20.894531 C 34.289062 -19.371094 35.449219 -17.34375 35.449219 -14.820312 C 35.449219 -12.40625 34.449219 -10.527344 32.449219 -9.183594 C 30.664062 -7.980469 28.304688 -7.382812 25.375 -7.382812 C 21.972656 -7.382812 19.222656 -8.230469 17.125 -9.933594 C 14.921875 -11.722656 13.820312 -14.179688 13.820312 -17.304688 L 15.519531 -17.304688 L 15.519531 -15.605469 L 3.414062 -15.605469 L 3.414062 -17.304688 L 5.113281 -17.304688 C 5.113281 -13.914062 5.914062 -10.972656 7.519531 -8.484375 C 9.121094 -5.996094 11.417969 -4.070312 14.402344 -2.707031 C 17.460938 -1.308594 21.144531 -0.609375 25.449219 -0.609375 Z M 25.449219 -0.609375 "/></g></g></g><g fill="#ffffff" fill-opacity="1"><g transform="translate(477.296974, 74.990434)"><g><path d="M 38.417969 0 L 38.417969 -21.882812 L 40.117188 -21.882812 L 40.117188 -20.183594 L 18.855469 -20.183594 L 18.855469 -21.882812 L 20.554688 -21.882812 L 20.554688 1.699219 L 4.820312 1.699219 L 4.820312 -56.015625 L 20.554688 -56.015625 L 20.554688 -33.441406 L 18.855469 -33.441406 L 18.855469 -35.140625 L 40.117188 -35.140625 L 40.117188 -33.441406 L 38.417969 -33.441406 L 38.417969 -56.015625 L 54.152344 -56.015625 L 54.152344 1.699219 L 38.417969 1.699219 Z M 41.8125 0 L 40.117188 0 L 40.117188 -1.699219 L 52.453125 -1.699219 L 52.453125 0 L 50.757812 0 L 50.757812 -54.316406 L 52.453125 -54.316406 L 52.453125 -52.617188 L 40.117188 -52.617188 L 40.117188 -54.316406 L 41.8125 -54.316406 L 41.8125 -31.746094 L 17.15625 -31.746094 L 17.15625 -54.316406 L 18.855469 -54.316406 L 18.855469 -52.617188 L 6.519531 -52.617188 L 6.519531 -54.316406 L 8.214844 -54.316406 L 8.214844 0 L 6.519531 0 L 6.519531 -1.699219 L 18.855469 -1.699219 L 18.855469 0 L 17.15625 0 L 17.15625 -23.578125 L 41.8125 -23.578125 Z M 41.8125 0 "/></g></g></g><g fill="#ffffff" fill-opacity="1"><g transform="translate(532.385606, 74.990434)"><g><path d="M 31.425781 2.785156 C 25.644531 2.785156 20.503906 1.507812 16 -1.046875 C 11.484375 -3.605469 7.960938 -7.144531 5.425781 -11.664062 C 2.902344 -16.160156 1.640625 -21.328125 1.640625 -27.15625 C 1.640625 -32.988281 2.902344 -38.152344 5.425781 -42.652344 C 7.957031 -47.167969 11.46875 -50.707031 15.957031 -53.269531 C 20.433594 -55.824219 25.566406 -57.101562 31.347656 -57.101562 C 36.199219 -57.101562 40.652344 -56.167969 44.703125 -54.308594 C 48.773438 -52.4375 52.195312 -49.796875 54.972656 -46.386719 C 57.75 -42.980469 59.683594 -38.976562 60.777344 -34.378906 L 61.277344 -32.289062 L 45.191406 -32.289062 L 44.796875 -33.433594 C 43.886719 -36.070312 42.277344 -38.148438 39.960938 -39.667969 C 37.605469 -41.214844 34.863281 -41.988281 31.734375 -41.988281 C 28.988281 -41.988281 26.542969 -41.367188 24.402344 -40.121094 C 22.273438 -38.886719 20.609375 -37.164062 19.417969 -34.960938 C 18.207031 -32.730469 17.605469 -30.128906 17.605469 -27.15625 C 17.605469 -24.1875 18.207031 -21.585938 19.417969 -19.355469 C 20.613281 -17.148438 22.261719 -15.425781 24.371094 -14.191406 C 26.484375 -12.949219 28.914062 -12.328125 31.660156 -12.328125 C 34.878906 -12.328125 37.6875 -13.148438 40.089844 -14.785156 C 42.480469 -16.417969 44.183594 -18.617188 45.195312 -21.378906 L 45.605469 -22.492188 L 61.585938 -22.492188 L 61.179688 -20.460938 C 60.246094 -15.792969 58.375 -11.710938 55.5625 -8.210938 C 52.757812 -4.71875 49.28125 -2.011719 45.136719 -0.0898438 C 41.003906 1.824219 36.433594 2.785156 31.425781 2.785156 Z M 31.425781 -0.609375 C 35.933594 -0.609375 40.03125 -1.464844 43.707031 -3.167969 C 47.375 -4.867188 50.441406 -7.257812 52.914062 -10.335938 C 55.378906 -13.40625 57.023438 -17.003906 57.851562 -21.128906 L 59.515625 -20.796875 L 59.515625 -19.097656 L 46.789062 -19.097656 L 46.789062 -20.796875 L 48.382812 -20.210938 C 47.121094 -16.765625 44.996094 -14.023438 42.003906 -11.984375 C 39.027344 -9.949219 35.578125 -8.933594 31.660156 -8.933594 C 28.300781 -8.933594 25.296875 -9.710938 22.652344 -11.261719 C 20 -12.816406 17.925781 -14.976562 16.433594 -17.738281 C 14.949219 -20.472656 14.210938 -23.613281 14.210938 -27.15625 C 14.210938 -30.703125 14.949219 -33.84375 16.433594 -36.578125 C 17.929688 -39.34375 20.015625 -41.503906 22.699219 -43.058594 C 25.367188 -44.609375 28.378906 -45.382812 31.734375 -45.382812 C 35.539062 -45.382812 38.902344 -44.425781 41.824219 -42.503906 C 44.785156 -40.558594 46.847656 -37.90625 48.007812 -34.539062 L 46.402344 -33.988281 L 46.402344 -35.683594 L 59.128906 -35.683594 L 59.128906 -33.988281 L 57.476562 -33.59375 C 56.5 -37.6875 54.789062 -41.238281 52.339844 -44.242188 C 49.894531 -47.246094 46.875 -49.574219 43.289062 -51.222656 C 39.683594 -52.878906 35.703125 -53.703125 31.347656 -53.703125 C 26.164062 -53.703125 21.597656 -52.578125 17.640625 -50.320312 C 13.695312 -48.070312 10.613281 -44.960938 8.386719 -40.992188 C 6.152344 -37.007812 5.035156 -32.398438 5.035156 -27.15625 C 5.035156 -21.917969 6.152344 -17.308594 8.386719 -13.324219 C 10.613281 -9.355469 13.707031 -6.25 17.675781 -4 C 21.65625 -1.742188 26.242188 -0.609375 31.425781 -0.609375 Z M 31.425781 -0.609375 "/></g></g></g><g fill="#ffffff" fill-opacity="1"><g transform="translate(591.120987, 74.990434)"><g><path d="M -0.878906 -0.625 L 21.117188 -56.015625 L 35.527344 -56.015625 L 58.445312 1.699219 L 41.59375 1.699219 L 37.523438 -8.773438 L 39.109375 -9.390625 L 39.109375 -7.691406 L 17.535156 -7.691406 L 17.535156 -9.390625 L 19.117188 -8.773438 L 15.050781 1.699219 L -1.800781 1.699219 Z M 2.277344 0.625 L 0.699219 0 L 0.699219 -1.699219 L 13.890625 -1.699219 L 13.890625 0 L 12.308594 -0.613281 L 16.375 -11.085938 L 40.269531 -11.085938 L 44.335938 -0.613281 L 42.753906 0 L 42.753906 -1.699219 L 55.945312 -1.699219 L 55.945312 0 L 54.367188 0.625 L 32.796875 -53.691406 L 34.375 -54.316406 L 34.375 -52.617188 L 22.269531 -52.617188 L 22.269531 -54.316406 L 23.847656 -53.691406 Z M 20.71875 -20.785156 L 36.003906 -20.785156 L 36.003906 -19.089844 L 34.421875 -18.476562 L 26.738281 -38.339844 L 28.320312 -38.953125 L 29.90625 -38.34375 L 22.304688 -18.480469 L 20.71875 -19.089844 Z M 18.25 -17.390625 L 28.3125 -43.679688 L 38.480469 -17.390625 Z M 18.25 -17.390625 "/></g></g></g><g fill="#ffffff" fill-opacity="1"><g transform="translate(643.881925, 74.990434)"><g><path d="M 4.820312 0 L 4.820312 -56.015625 L 17.859375 -56.015625 L 42.34375 -22.257812 L 40.96875 -21.261719 L 39.273438 -21.261719 L 39.273438 -56.015625 L 54.925781 -56.015625 L 54.925781 1.699219 L 41.886719 1.699219 L 17.402344 -32.296875 L 18.777344 -33.289062 L 20.476562 -33.289062 L 20.476562 1.699219 L 4.820312 1.699219 Z M 8.214844 0 L 6.519531 0 L 6.519531 -1.699219 L 18.777344 -1.699219 L 18.777344 0 L 17.082031 0 L 17.082031 -38.550781 L 44.132812 -0.992188 L 42.753906 0 L 42.753906 -1.699219 L 53.230469 -1.699219 L 53.230469 0 L 51.53125 0 L 51.53125 -54.316406 L 53.230469 -54.316406 L 53.230469 -52.617188 L 40.96875 -52.617188 L 40.96875 -54.316406 L 42.667969 -54.316406 L 42.667969 -16.03125 L 15.617188 -53.320312 L 16.992188 -54.316406 L 16.992188 -52.617188 L 6.519531 -52.617188 L 6.519531 -54.316406 L 8.214844 -54.316406 Z M 8.214844 0 "/></g></g></g><g fill="#ffffff" fill-opacity="1"><g transform="translate(699.746424, 74.990434)"><g><path d="M 25.449219 2.785156 C 20.652344 2.785156 16.5 1.984375 12.992188 0.378906 C 9.402344 -1.257812 6.628906 -3.597656 4.664062 -6.644531 C 2.699219 -9.691406 1.714844 -13.246094 1.714844 -17.304688 L 1.714844 -19 L 17.214844 -19 L 17.214844 -17.304688 C 17.214844 -15.257812 17.898438 -13.679688 19.265625 -12.570312 C 20.738281 -11.375 22.773438 -10.777344 25.375 -10.777344 C 27.613281 -10.777344 29.34375 -11.183594 30.554688 -12 C 31.554688 -12.671875 32.054688 -13.613281 32.054688 -14.820312 C 32.054688 -16.125 31.40625 -17.203125 30.105469 -18.058594 C 28.472656 -19.132812 25.84375 -20.058594 22.222656 -20.84375 C 15.566406 -22.25 10.601562 -24.425781 7.324219 -27.371094 C 3.894531 -30.449219 2.183594 -34.4375 2.183594 -39.339844 C 2.183594 -44.851562 4.207031 -49.214844 8.257812 -52.425781 C 12.1875 -55.542969 17.476562 -57.101562 24.132812 -57.101562 C 28.675781 -57.101562 32.640625 -56.308594 36.023438 -54.730469 C 39.472656 -53.117188 42.152344 -50.84375 44.0625 -47.910156 C 45.976562 -44.964844 46.933594 -41.488281 46.933594 -37.476562 L 46.933594 -35.78125 L 31.667969 -35.78125 L 31.667969 -37.476562 C 31.667969 -39.394531 31.058594 -40.882812 29.84375 -41.941406 C 28.5625 -43.058594 26.707031 -43.617188 24.285156 -43.617188 C 22.046875 -43.617188 20.316406 -43.210938 19.105469 -42.394531 C 18.105469 -41.722656 17.605469 -40.78125 17.605469 -39.574219 C 17.605469 -38.511719 18.1875 -37.582031 19.351562 -36.78125 C 20.832031 -35.761719 23.539062 -34.789062 27.472656 -33.851562 C 34.527344 -32.183594 39.664062 -29.90625 42.878906 -27.023438 C 46.253906 -24 47.945312 -20.085938 47.945312 -15.285156 C 47.945312 -9.613281 45.878906 -5.160156 41.746094 -1.921875 C 37.738281 1.214844 32.308594 2.785156 25.449219 2.785156 Z M 25.449219 -0.609375 C 31.527344 -0.609375 36.261719 -1.9375 39.652344 -4.59375 C 42.917969 -7.152344 44.550781 -10.714844 44.550781 -15.285156 C 44.550781 -19.074219 43.238281 -22.144531 40.613281 -24.496094 C 37.828125 -26.996094 33.183594 -29.011719 26.6875 -30.550781 C 22.34375 -31.582031 19.257812 -32.726562 17.429688 -33.984375 C 15.28125 -35.460938 14.210938 -37.324219 14.210938 -39.574219 C 14.210938 -41.988281 15.210938 -43.867188 17.210938 -45.210938 C 18.996094 -46.414062 21.355469 -47.011719 24.285156 -47.011719 C 27.554688 -47.011719 30.152344 -46.175781 32.074219 -44.5 C 34.066406 -42.765625 35.0625 -40.425781 35.0625 -37.476562 L 33.367188 -37.476562 L 33.367188 -39.175781 L 45.238281 -39.175781 L 45.238281 -37.476562 L 43.539062 -37.476562 C 43.539062 -40.816406 42.765625 -43.675781 41.214844 -46.058594 C 39.660156 -48.449219 37.449219 -50.316406 34.585938 -51.652344 C 31.660156 -53.019531 28.175781 -53.703125 24.132812 -53.703125 C 18.265625 -53.703125 13.679688 -52.390625 10.367188 -49.765625 C 7.171875 -47.234375 5.578125 -43.757812 5.578125 -39.339844 C 5.578125 -35.449219 6.914062 -32.300781 9.59375 -29.894531 C 12.417969 -27.355469 16.867188 -25.445312 22.9375 -24.160156 C 26.972656 -23.289062 29.984375 -22.199219 31.96875 -20.894531 C 34.289062 -19.371094 35.449219 -17.34375 35.449219 -14.820312 C 35.449219 -12.40625 34.449219 -10.527344 32.449219 -9.183594 C 30.664062 -7.980469 28.304688 -7.382812 25.375 -7.382812 C 21.972656 -7.382812 19.222656 -8.230469 17.125 -9.933594 C 14.921875 -11.722656 13.820312 -14.179688 13.820312 -17.304688 L 15.519531 -17.304688 L 15.519531 -15.605469 L 3.414062 -15.605469 L 3.414062 -17.304688 L 5.113281 -17.304688 C 5.113281 -13.914062 5.914062 -10.972656 7.519531 -8.484375 C 9.121094 -5.996094 11.417969 -4.070312 14.402344 -2.707031 C 17.460938 -1.308594 21.144531 -0.609375 25.449219 -0.609375 Z M 25.449219 -0.609375 "/></g></g></g><g fill="#ffffff" fill-opacity="1"><g transform="translate(0.509545, 74.990434)"><g><path d="M 25.453125 1.09375 C 20.898438 1.09375 16.976562 0.34375 13.6875 -1.15625 C 10.40625 -2.664062 7.875 -4.800781 6.09375 -7.5625 C 4.3125 -10.332031 3.421875 -13.578125 3.421875 -17.296875 L 15.515625 -17.296875 C 15.515625 -14.710938 16.40625 -12.695312 18.1875 -11.25 C 19.976562 -9.800781 22.375 -9.078125 25.375 -9.078125 C 27.957031 -9.078125 30 -9.582031 31.5 -10.59375 C 33 -11.601562 33.75 -13.015625 33.75 -14.828125 C 33.75 -16.734375 32.84375 -18.28125 31.03125 -19.46875 C 29.226562 -20.664062 26.410156 -21.675781 22.578125 -22.5 C 16.210938 -23.84375 11.503906 -25.882812 8.453125 -28.625 C 5.398438 -31.375 3.875 -34.945312 3.875 -39.34375 C 3.875 -44.3125 5.6875 -48.226562 9.3125 -51.09375 C 12.9375 -53.96875 17.875 -55.40625 24.125 -55.40625 C 28.425781 -55.40625 32.148438 -54.664062 35.296875 -53.1875 C 38.453125 -51.71875 40.894531 -49.648438 42.625 -46.984375 C 44.363281 -44.316406 45.234375 -41.148438 45.234375 -37.484375 L 33.359375 -37.484375 C 33.359375 -39.910156 32.554688 -41.820312 30.953125 -43.21875 C 29.347656 -44.613281 27.125 -45.3125 24.28125 -45.3125 C 21.695312 -45.3125 19.65625 -44.804688 18.15625 -43.796875 C 16.65625 -42.785156 15.90625 -41.378906 15.90625 -39.578125 C 15.90625 -37.921875 16.734375 -36.519531 18.390625 -35.375 C 20.046875 -34.238281 22.941406 -33.179688 27.078125 -32.203125 C 33.859375 -30.597656 38.75 -28.445312 41.75 -25.75 C 44.75 -23.0625 46.25 -19.570312 46.25 -15.28125 C 46.25 -10.164062 44.398438 -6.15625 40.703125 -3.25 C 37.003906 -0.351562 31.921875 1.09375 25.453125 1.09375 Z M 25.453125 1.09375 "/></g></g></g><g fill="#ffffff" fill-opacity="1"><g transform="translate(46.364918, 74.990434)"><g><path d="M 6.515625 0 L 6.515625 -54.3125 L 17 -54.3125 L 36.3125 -26.15625 L 55.5625 -54.3125 L 65.953125 -54.3125 L 65.953125 0 L 53.6875 0 L 53.6875 -32.671875 L 40.5 -13.421875 L 31.96875 -13.421875 L 18.78125 -32.75 L 18.78125 0 Z M 6.515625 0 "/></g></g></g><g fill="#ffffff" fill-opacity="1"><g transform="translate(114.954261, 74.990434)"><g><path d="M 0.703125 0 L 22.265625 -54.3125 L 34.375 -54.3125 L 55.9375 0 L 42.75 0 L 39.109375 -9.390625 L 17.53125 -9.390625 L 13.890625 0 Z M 20.71875 -19.09375 L 36 -19.09375 L 28.328125 -38.953125 Z M 20.71875 -19.09375 "/></g></g></g><g fill="#ffffff" fill-opacity="1"><g transform="translate(167.715177, 74.990434)"><g><path d="M 6.515625 0 L 6.515625 -54.3125 L 29.71875 -54.3125 C 33.851562 -54.3125 37.445312 -53.5625 40.5 -52.0625 C 43.550781 -50.5625 45.90625 -48.414062 47.5625 -45.625 C 49.21875 -42.832031 50.046875 -39.492188 50.046875 -35.609375 C 50.046875 -31.628906 49.140625 -28.203125 47.328125 -25.328125 C 45.515625 -22.460938 42.984375 -20.304688 39.734375 -18.859375 L 50.984375 0 L 36.703125 0 L 27 -16.921875 L 18.859375 -16.921875 L 18.859375 0 Z M 18.703125 -27.3125 L 28.09375 -27.3125 C 31.144531 -27.3125 33.484375 -28.019531 35.109375 -29.4375 C 36.742188 -30.863281 37.5625 -32.894531 37.5625 -35.53125 C 37.5625 -38.175781 36.742188 -40.207031 35.109375 -41.625 C 33.484375 -43.050781 31.144531 -43.765625 28.09375 -43.765625 L 18.703125 -43.765625 Z M 18.703125 -27.3125 "/></g></g></g><g fill="#ffffff" fill-opacity="1"><g transform="translate(218.458728, 74.990434)"><g><path d="M 19.546875 0 L 19.546875 -42.75 L 2.328125 -42.75 L 2.328125 -54.3125 L 49.109375 -54.3125 L 49.109375 -42.75 L 31.890625 -42.75 L 31.890625 0 Z M 19.546875 0 "/></g></g></g><g fill="#ffffff" fill-opacity="1"><g transform="translate(266.02109, 74.990434)"><g/></g></g><g fill="#ffffff" fill-opacity="1"><g transform="translate(280.374773, 74.990434)"><g><path d="M 19.546875 0 L 19.546875 -42.75 L 2.328125 -42.75 L 2.328125 -54.3125 L 49.109375 -54.3125 L 49.109375 -42.75 L 31.890625 -42.75 L 31.890625 0 Z M 19.546875 0 "/></g></g></g><g fill="#ffffff" fill-opacity="1"><g transform="translate(327.937136, 74.990434)"><g><path d="M 6.515625 0 L 6.515625 -54.3125 L 29.71875 -54.3125 C 33.851562 -54.3125 37.445312 -53.5625 40.5 -52.0625 C 43.550781 -50.5625 45.90625 -48.414062 47.5625 -45.625 C 49.21875 -42.832031 50.046875 -39.492188 50.046875 -35.609375 C 50.046875 -31.628906 49.140625 -28.203125 47.328125 -25.328125 C 45.515625 -22.460938 42.984375 -20.304688 39.734375 -18.859375 L 50.984375 0 L 36.703125 0 L 27 -16.921875 L 18.859375 -16.921875 L 18.859375 0 Z M 18.703125 -27.3125 L 28.09375 -27.3125 C 31.144531 -27.3125 33.484375 -28.019531 35.109375 -29.4375 C 36.742188 -30.863281 37.5625 -32.894531 37.5625 -35.53125 C 37.5625 -38.175781 36.742188 -40.207031 35.109375 -41.625 C 33.484375 -43.050781 31.144531 -43.765625 28.09375 -43.765625 L 18.703125 -43.765625 Z M 18.703125 -27.3125 "/></g></g></g><g fill="#ffffff" fill-opacity="1"><g transform="translate(378.68071, 74.990434)"><g><path d="M 0.703125 0 L 22.265625 -54.3125 L 34.375 -54.3125 L 55.9375 0 L 42.75 0 L 39.109375 -9.390625 L 17.53125 -9.390625 L 13.890625 0 Z M 20.71875 -19.09375 L 36 -19.09375 L 28.328125 -38.953125 Z M 20.71875 -19.09375 "/></g></g></g><g fill="#ffffff" fill-opacity="1"><g transform="translate(431.441648, 74.990434)"><g><path d="M 25.453125 1.09375 C 20.898438 1.09375 16.976562 0.34375 13.6875 -1.15625 C 10.40625 -2.664062 7.875 -4.800781 6.09375 -7.5625 C 4.3125 -10.332031 3.421875 -13.578125 3.421875 -17.296875 L 15.515625 -17.296875 C 15.515625 -14.710938 16.40625 -12.695312 18.1875 -11.25 C 19.976562 -9.800781 22.375 -9.078125 25.375 -9.078125 C 27.957031 -9.078125 30 -9.582031 31.5 -10.59375 C 33 -11.601562 33.75 -13.015625 33.75 -14.828125 C 33.75 -16.734375 32.84375 -18.28125 31.03125 -19.46875 C 29.226562 -20.664062 26.410156 -21.675781 22.578125 -22.5 C 16.210938 -23.84375 11.503906 -25.882812 8.453125 -28.625 C 5.398438 -31.375 3.875 -34.945312 3.875 -39.34375 C 3.875 -44.3125 5.6875 -48.226562 9.3125 -51.09375 C 12.9375 -53.96875 17.875 -55.40625 24.125 -55.40625 C 28.425781 -55.40625 32.148438 -54.664062 35.296875 -53.1875 C 38.453125 -51.71875 40.894531 -49.648438 42.625 -46.984375 C 44.363281 -44.316406 45.234375 -41.148438 45.234375 -37.484375 L 33.359375 -37.484375 C 33.359375 -39.910156 32.554688 -41.820312 30.953125 -43.21875 C 29.347656 -44.613281 27.125 -45.3125 24.28125 -45.3125 C 21.695312 -45.3125 19.65625 -44.804688 18.15625 -43.796875 C 16.65625 -42.785156 15.90625 -41.378906 15.90625 -39.578125 C 15.90625 -37.921875 16.734375 -36.519531 18.390625 -35.375 C 20.046875 -34.238281 22.941406 -33.179688 27.078125 -32.203125 C 33.859375 -30.597656 38.75 -28.445312 41.75 -25.75 C 44.75 -23.0625 46.25 -19.570312 46.25 -15.28125 C 46.25 -10.164062 44.398438 -6.15625 40.703125 -3.25 C 37.003906 -0.351562 31.921875 1.09375 25.453125 1.09375 Z M 25.453125 1.09375 "/></g></g></g><g fill="#ffffff" fill-opacity="1"><g transform="translate(477.296974, 74.990434)"><g><path d="M 40.109375 0 L 40.109375 -21.875 L 18.859375 -21.875 L 18.859375 0 L 6.515625 0 L 6.515625 -54.3125 L 18.859375 -54.3125 L 18.859375 -33.4375 L 40.109375 -33.4375 L 40.109375 -54.3125 L 52.453125 -54.3125 L 52.453125 0 Z M 40.109375 0 "/></g></g></g><g fill="#ffffff" fill-opacity="1"><g transform="translate(532.385606, 74.990434)"><g><path d="M 31.421875 1.09375 C 25.941406 1.09375 21.078125 -0.109375 16.828125 -2.515625 C 12.585938 -4.921875 9.28125 -8.242188 6.90625 -12.484375 C 4.53125 -16.734375 3.34375 -21.625 3.34375 -27.15625 C 3.34375 -32.6875 4.53125 -37.570312 6.90625 -41.8125 C 9.28125 -46.0625 12.578125 -49.390625 16.796875 -51.796875 C 21.015625 -54.203125 25.863281 -55.40625 31.34375 -55.40625 C 35.945312 -55.40625 40.160156 -54.523438 43.984375 -52.765625 C 47.816406 -51.003906 51.039062 -48.519531 53.65625 -45.3125 C 56.269531 -42.101562 58.09375 -38.328125 59.125 -33.984375 L 46.40625 -33.984375 C 45.363281 -36.984375 43.523438 -39.347656 40.890625 -41.078125 C 38.253906 -42.816406 35.203125 -43.6875 31.734375 -43.6875 C 28.679688 -43.6875 25.953125 -42.988281 23.546875 -41.59375 C 21.140625 -40.195312 19.265625 -38.253906 17.921875 -35.765625 C 16.578125 -33.285156 15.90625 -30.414062 15.90625 -27.15625 C 15.90625 -23.894531 16.578125 -21.023438 17.921875 -18.546875 C 19.265625 -16.066406 21.125 -14.125 23.5 -12.71875 C 25.882812 -11.320312 28.601562 -10.625 31.65625 -10.625 C 35.226562 -10.625 38.359375 -11.539062 41.046875 -13.375 C 43.734375 -15.21875 45.648438 -17.691406 46.796875 -20.796875 L 59.515625 -20.796875 C 58.640625 -16.398438 56.878906 -12.554688 54.234375 -9.265625 C 51.597656 -5.984375 48.328125 -3.4375 44.421875 -1.625 C 40.515625 0.1875 36.179688 1.09375 31.421875 1.09375 Z M 31.421875 1.09375 "/></g></g></g><g fill="#ffffff" fill-opacity="1"><g transform="translate(591.120987, 74.990434)"><g><path d="M 0.703125 0 L 22.265625 -54.3125 L 34.375 -54.3125 L 55.9375 0 L 42.75 0 L 39.109375 -9.390625 L 17.53125 -9.390625 L 13.890625 0 Z M 20.71875 -19.09375 L 36 -19.09375 L 28.328125 -38.953125 Z M 20.71875 -19.09375 "/></g></g></g><g fill="#ffffff" fill-opacity="1"><g transform="translate(643.881925, 74.990434)"><g><path d="M 6.515625 0 L 6.515625 -54.3125 L 17 -54.3125 L 40.96875 -21.265625 L 40.96875 -54.3125 L 53.234375 -54.3125 L 53.234375 0 L 42.75 0 L 18.78125 -33.28125 L 18.78125 0 Z M 6.515625 0 "/></g></g></g><g fill="#ffffff" fill-opacity="1"><g transform="translate(699.746424, 74.990434)"><g><path d="M 25.453125 1.09375 C 20.898438 1.09375 16.976562 0.34375 13.6875 -1.15625 C 10.40625 -2.664062 7.875 -4.800781 6.09375 -7.5625 C 4.3125 -10.332031 3.421875 -13.578125 3.421875 -17.296875 L 15.515625 -17.296875 C 15.515625 -14.710938 16.40625 -12.695312 18.1875 -11.25 C 19.976562 -9.800781 22.375 -9.078125 25.375 -9.078125 C 27.957031 -9.078125 30 -9.582031 31.5 -10.59375 C 33 -11.601562 33.75 -13.015625 33.75 -14.828125 C 33.75 -16.734375 32.84375 -18.28125 31.03125 -19.46875 C 29.226562 -20.664062 26.410156 -21.675781 22.578125 -22.5 C 16.210938 -23.84375 11.503906 -25.882812 8.453125 -28.625 C 5.398438 -31.375 3.875 -34.945312 3.875 -39.34375 C 3.875 -44.3125 5.6875 -48.226562 9.3125 -51.09375 C 12.9375 -53.96875 17.875 -55.40625 24.125 -55.40625 C 28.425781 -55.40625 32.148438 -54.664062 35.296875 -53.1875 C 38.453125 -51.71875 40.894531 -49.648438 42.625 -46.984375 C 44.363281 -44.316406 45.234375 -41.148438 45.234375 -37.484375 L 33.359375 -37.484375 C 33.359375 -39.910156 32.554688 -41.820312 30.953125 -43.21875 C 29.347656 -44.613281 27.125 -45.3125 24.28125 -45.3125 C 21.695312 -45.3125 19.65625 -44.804688 18.15625 -43.796875 C 16.65625 -42.785156 15.90625 -41.378906 15.90625 -39.578125 C 15.90625 -37.921875 16.734375 -36.519531 18.390625 -35.375 C 20.046875 -34.238281 22.941406 -33.179688 27.078125 -32.203125 C 33.859375 -30.597656 38.75 -28.445312 41.75 -25.75 C 44.75 -23.0625 46.25 -19.570312 46.25 -15.28125 C 46.25 -10.164062 44.398438 -6.15625 40.703125 -3.25 C 37.003906 -0.351562 31.921875 1.09375 25.453125 1.09375 Z M 25.453125 1.09375 "/></g></g></g></svg>