<svg xmlns="http://www.w3.org/2000/svg" xmlns:xlink="http://www.w3.org/1999/xlink" width="500" zoomAndPan="magnify" viewBox="0 0 375 374.999991" height="500" preserveAspectRatio="xMidYMid meet" version="1.0"><defs><g/><clipPath id="c99714c03e"><rect x="0" width="285" y="0" height="324"/></clipPath></defs><g transform="matrix(1, 0, 0, 1, 45, 25)"><g clip-path="url(#c99714c03e)"><g fill="#000000" fill-opacity="1"><g transform="translate(1.515543, 239.022861)"><g><path d="M 72.75 7.957031 C 59.035156 7.957031 47.160156 5.667969 37.132812 1.085938 C 26.882812 -3.59375 18.949219 -10.289062 13.332031 -18.996094 C 7.714844 -27.707031 4.90625 -37.863281 4.90625 -49.460938 L 4.90625 -54.3125 L 49.210938 -54.3125 L 49.210938 -49.460938 C 49.210938 -43.609375 51.164062 -39.097656 55.070312 -35.929688 C 59.28125 -32.511719 65.101562 -30.800781 72.527344 -30.800781 C 78.933594 -30.800781 83.875 -31.96875 87.34375 -34.300781 C 90.203125 -36.222656 91.632812 -38.910156 91.632812 -42.363281 C 91.632812 -46.089844 89.773438 -49.175781 86.054688 -51.617188 C 81.382812 -54.6875 73.871094 -57.339844 63.519531 -59.578125 C 44.496094 -63.601562 30.300781 -69.820312 20.933594 -78.234375 C 11.136719 -87.035156 6.238281 -98.441406 6.238281 -112.453125 C 6.238281 -128.210938 12.027344 -140.679688 23.601562 -149.855469 C 34.835938 -158.765625 49.960938 -163.21875 68.980469 -163.21875 C 81.972656 -163.21875 93.300781 -160.957031 102.972656 -156.441406 C 112.832031 -151.835938 120.488281 -145.335938 125.945312 -136.945312 C 131.421875 -128.527344 134.160156 -118.585938 134.160156 -107.128906 L 134.160156 -102.277344 L 90.523438 -102.277344 L 90.523438 -107.128906 C 90.523438 -112.605469 88.785156 -116.859375 85.3125 -119.882812 C 81.640625 -123.082031 76.34375 -124.679688 69.421875 -124.679688 C 63.015625 -124.679688 58.078125 -123.511719 54.609375 -121.179688 C 51.75 -119.257812 50.320312 -116.570312 50.320312 -113.117188 C 50.320312 -110.085938 51.984375 -107.429688 55.316406 -105.140625 C 59.550781 -102.226562 67.289062 -99.4375 78.53125 -96.769531 C 98.699219 -91.996094 113.378906 -85.488281 122.566406 -77.25 C 132.21875 -68.597656 137.042969 -57.410156 137.042969 -43.695312 C 137.042969 -27.480469 131.136719 -14.746094 119.324219 -5.496094 C 107.875 3.472656 92.351562 7.957031 72.75 7.957031 Z M 72.75 -1.746094 C 90.117188 -1.746094 103.648438 -5.542969 113.34375 -13.136719 C 122.675781 -20.445312 127.339844 -30.632812 127.339844 -43.695312 C 127.339844 -54.523438 123.589844 -63.300781 116.089844 -70.023438 C 108.125 -77.164062 94.859375 -82.929688 76.285156 -87.328125 C 63.871094 -90.273438 55.046875 -93.546875 49.816406 -97.140625 C 43.683594 -101.359375 40.617188 -106.683594 40.617188 -113.117188 C 40.617188 -120.015625 43.476562 -125.386719 49.195312 -129.230469 C 54.300781 -132.667969 61.042969 -134.382812 69.421875 -134.382812 C 78.765625 -134.382812 86.1875 -131.988281 91.683594 -127.203125 C 97.378906 -122.242188 100.226562 -115.550781 100.226562 -107.128906 L 95.375 -107.128906 L 95.375 -111.980469 L 129.308594 -111.980469 L 129.308594 -107.128906 L 124.457031 -107.128906 C 124.457031 -116.667969 122.242188 -124.84375 117.8125 -131.652344 C 113.363281 -138.492188 107.046875 -143.824219 98.863281 -147.648438 C 90.496094 -151.558594 80.535156 -153.511719 68.980469 -153.511719 C 52.214844 -153.511719 39.097656 -149.761719 29.628906 -142.253906 C 20.503906 -135.019531 15.941406 -125.085938 15.941406 -112.453125 C 15.941406 -101.328125 19.765625 -92.328125 27.417969 -85.453125 C 35.496094 -78.195312 48.214844 -72.734375 65.570312 -69.0625 C 77.101562 -66.570312 85.707031 -63.457031 91.382812 -59.726562 C 98.019531 -55.367188 101.335938 -49.578125 101.335938 -42.363281 C 101.335938 -35.464844 98.476562 -30.09375 92.757812 -26.25 C 87.652344 -22.816406 80.910156 -21.097656 72.527344 -21.097656 C 62.804688 -21.097656 54.945312 -23.53125 48.953125 -28.394531 C 42.65625 -33.503906 39.507812 -40.527344 39.507812 -49.460938 L 44.359375 -49.460938 L 44.359375 -44.609375 L 9.757812 -44.609375 L 9.757812 -49.460938 L 14.609375 -49.460938 C 14.609375 -39.765625 16.902344 -31.367188 21.488281 -24.253906 C 26.078125 -17.140625 32.636719 -11.636719 41.164062 -7.742188 C 49.914062 -3.746094 60.441406 -1.746094 72.75 -1.746094 Z M 72.75 -1.746094 "/></g></g></g><g fill="#000000" fill-opacity="1"><g transform="translate(136.367956, 239.022861)"><g><path d="M 51.042969 0 L 51.042969 -122.210938 L 55.894531 -122.210938 L 55.894531 -117.359375 L 1.800781 -117.359375 L 1.800781 -160.113281 L 145.25 -160.113281 L 145.25 -117.359375 L 91.160156 -117.359375 L 91.160156 -122.210938 L 96.011719 -122.210938 L 96.011719 4.851562 L 51.042969 4.851562 Z M 60.746094 0 L 55.894531 0 L 55.894531 -4.851562 L 91.160156 -4.851562 L 91.160156 0 L 86.308594 0 L 86.308594 -127.0625 L 140.398438 -127.0625 L 140.398438 -122.210938 L 135.546875 -122.210938 L 135.546875 -155.261719 L 140.398438 -155.261719 L 140.398438 -150.40625 L 6.652344 -150.40625 L 6.652344 -155.261719 L 11.507812 -155.261719 L 11.507812 -122.210938 L 6.652344 -122.210938 L 6.652344 -127.0625 L 60.746094 -127.0625 Z M 60.746094 0 "/></g></g></g><g fill="#000000" fill-opacity="1"><g transform="translate(1.515543, 239.022861)"><g><path d="M 72.75 3.109375 C 59.738281 3.109375 48.535156 0.960938 39.140625 -3.328125 C 29.753906 -7.617188 22.507812 -13.71875 17.40625 -21.625 C 12.3125 -29.53125 9.765625 -38.804688 9.765625 -49.453125 L 44.359375 -49.453125 C 44.359375 -42.066406 46.90625 -36.300781 52 -32.15625 C 57.101562 -28.019531 63.945312 -25.953125 72.53125 -25.953125 C 79.925781 -25.953125 85.765625 -27.390625 90.046875 -30.265625 C 94.335938 -33.148438 96.484375 -37.179688 96.484375 -42.359375 C 96.484375 -47.828125 93.894531 -52.257812 88.71875 -55.65625 C 83.539062 -59.0625 75.484375 -61.953125 64.546875 -64.328125 C 46.359375 -68.171875 32.898438 -74.007812 24.171875 -81.84375 C 15.453125 -89.675781 11.09375 -99.878906 11.09375 -112.453125 C 11.09375 -126.648438 16.265625 -137.847656 26.609375 -146.046875 C 36.960938 -154.253906 51.085938 -158.359375 68.984375 -158.359375 C 81.253906 -158.359375 91.898438 -156.25 100.921875 -152.03125 C 109.941406 -147.820312 116.925781 -141.910156 121.875 -134.296875 C 126.832031 -126.679688 129.3125 -117.625 129.3125 -107.125 L 95.375 -107.125 C 95.375 -114.070312 93.082031 -119.539062 88.5 -123.53125 C 83.914062 -127.53125 77.554688 -129.53125 69.421875 -129.53125 C 62.023438 -129.53125 56.179688 -128.085938 51.890625 -125.203125 C 47.609375 -122.316406 45.46875 -118.285156 45.46875 -113.109375 C 45.46875 -108.378906 47.832031 -104.390625 52.5625 -101.140625 C 57.289062 -97.890625 65.570312 -94.859375 77.40625 -92.046875 C 96.78125 -87.460938 110.753906 -81.328125 119.328125 -73.640625 C 127.898438 -65.953125 132.1875 -55.96875 132.1875 -43.6875 C 132.1875 -29.050781 126.898438 -17.59375 116.328125 -9.3125 C 105.753906 -1.03125 91.226562 3.109375 72.75 3.109375 Z M 72.75 3.109375 "/></g></g></g><g fill="#000000" fill-opacity="1"><g transform="translate(136.367956, 239.022861)"><g><path d="M 55.890625 0 L 55.890625 -122.203125 L 6.65625 -122.203125 L 6.65625 -155.265625 L 140.390625 -155.265625 L 140.390625 -122.203125 L 91.15625 -122.203125 L 91.15625 0 Z M 55.890625 0 "/></g></g></g></g></g></svg>